<svg width="314" height="39" viewBox="0 0 314 39" fill="none" xmlns="http://www.w3.org/2000/svg">
<path d="M164.561 37.8314L168.929 29.4946C169.279 28.8257 169.976 28.4112 170.731 28.4229L234 29.4038L303.194 30.8794C303.987 30.8963 304.716 30.4427 305.05 29.7233L313.208 12.1844C313.816 10.8754 312.98 9.37443 311.537 9.34341C289.431 8.86835 150.195 5.86538 118 4.90433C87.6207 3.99749 15.3019 0.623168 2.09065 0.00231357C0.950206 -0.051281 -9.32695e-10 0.859031 -2.73192e-09 2.00073L-1.99549e-08 31.0058C-4.20983e-09 32.0695 0.819454 32.9463 1.88178 33.0012C10.8061 33.4626 50.0136 35.4582 87.9997 36.9043C122.352 38.2121 153.46 38.8443 162.807 38.8994C163.551 38.9038 164.216 38.4904 164.561 37.8314Z" fill="#44D600"/>
</svg>
