<svg width="411" height="65" viewBox="0 0 411 65" fill="none" xmlns="http://www.w3.org/2000/svg">
<path d="M0.00133538 3.09067C-0.0485194 1.34411 1.30358 -0.0799909 3.04886 0.00349281C25.683 1.08617 163.865 7.66503 193.909 8.35305C223.977 9.04166 382.163 15.209 407.875 16.2147C409.762 16.2885 411.004 18.0624 410.568 19.9L400.471 62.4823C400.143 63.8637 398.966 64.8283 397.547 64.7913C376.782 64.2499 225.09 60.3185 180.409 59.853C136.473 59.3954 22.9987 53.4919 4.09647 52.4954C2.53699 52.4132 1.37458 50.1515 1.32997 48.5905L1.15899 42.6077C1.11154 40.9473 2.42225 39.5644 4.08278 39.5229L8.02513 39.4243C8.03163 39.4242 8.03816 39.4255 8.04466 39.4253L11.1755 39.3472C11.1788 39.3471 11.182 39.3463 11.1853 39.3462L15.0284 39.2509C16.6416 39.2109 17.9342 38.9019 17.9538 37.2882L18.199 17.0719C18.2186 15.4584 16.9584 14.1184 15.3467 14.0391L3.06485 13.4348C1.50021 13.3578 0.258213 12.0899 0.213515 10.524L0.00133538 3.09067Z" fill="url(#paint0_linear_119_20)"/>
<defs>
<linearGradient id="paint0_linear_119_20" x1="-0.000244141" y1="32.3966" x2="410.655" y2="32.3966" gradientUnits="userSpaceOnUse">
<stop stop-color="#D9D9D9"/>
<stop offset="1" stop-color="#737373" stop-opacity="0.2"/>
</linearGradient>
</defs>
</svg>
